<?xml version="1.0" encoding="UTF-8" standalone="no"?><!DOCTYPE svg PUBLIC "-//W3C//DTD SVG 1.1//EN" "http://www.w3.org/Graphics/SVG/1.1/DTD/svg11.dtd"><svg width="100%" height="100%" viewBox="0 0 32 32" version="1.1" xmlns="http://www.w3.org/2000/svg" xmlns:xlink="http://www.w3.org/1999/xlink" xml:space="preserve" xmlns:serif="http://www.serif.com/" style="fill-rule:evenodd;clip-rule:evenodd;stroke-linejoin:round;stroke-miterlimit:2;"><path d="M28.967,12l-19.525,0c-0.859,-0 -1.627,0.553 -1.898,1.368l-3.544,10.632l0,-14l24,0c0,-1.097 -0.903,-2 -2,-2l-10.876,0c-0.468,-0 -0.921,-0.164 -1.28,-0.464l-1.288,-1.072c-0.359,-0.3 -0.812,-0.464 -1.28,-0.464l-7.276,0c-1.097,0 -2,0.903 -2,2l0,16c0,1.097 0.903,2 2,2l22,0l4.805,-11.212c0.107,-0.249 0.162,-0.517 0.162,-0.788c0,-1.097 -0.903,-2 -2,-2" style="fill:#407cbf;fill-rule:nonzero;"/></svg>