<?xml version="1.0" encoding="UTF-8"?>
<!-- Git-branch glyph for worktree project cards. Single-fill so GTK recolors it
     to the theme foreground (same convention as cc-file-symbolic.svg). -->
<svg xmlns="http://www.w3.org/2000/svg" height="16px" width="16px" viewBox="0 0 16 16">
  <path fill="#222222" fill-rule="evenodd" d="M9.5 3.25a2.25 2.25 0 1 1 3 2.122V6A2.5 2.5 0 0 1 10 8.5H6a1 1 0 0 0-1 1v1.128a2.251 2.251 0 1 1-1.5 0V5.372a2.25 2.25 0 1 1 1.5 0v1.836A2.492 2.492 0 0 1 6 7h4a1 1 0 0 0 1-1v-.628A2.25 2.25 0 0 1 9.5 3.25ZM4.25 3.5a.75.75 0 1 0 0-1.5.75.75 0 0 0 0 1.5Zm8 0a.75.75 0 1 0 0-1.5.75.75 0 0 0 0 1.5Zm-8 10a.75.75 0 1 0 0-1.5.75.75 0 0 0 0 1.5Z"/>
</svg>
